<?xml version="1.0" encoding="utf-8"?>
<!-- Generator: Adobe Illustrator 16.0.0, SVG Export Plug-In . SVG Version: 6.00 Build 0)  -->
<!DOCTYPE svg PUBLIC "-//W3C//DTD SVG 1.1//EN" "http://www.w3.org/Graphics/SVG/1.1/DTD/svg11.dtd">
<svg version="1.1" id="Layer_1" xmlns="http://www.w3.org/2000/svg" xmlns:xlink="http://www.w3.org/1999/xlink" x="0px" y="0px"
	 width="1897.535px" height="394.859px" viewBox="46.229 83.157 1897.535 394.859"
	 enable-background="new 46.229 83.157 1897.535 394.859" xml:space="preserve">
<path fill="#FFFFFF" d="M1631.103,478.017l295.398-386.393c0,0,11.712-10.975,17.138-7.935
	c5.426,3.041-167.807,265.84-192.215,299.213s-60.245,28.117-60.245,28.117l-3.364,40.604
	C1687.814,451.623,1665.374,443.326,1631.103,478.017z"/>
<g>
	<path fill="#FFFFFF" d="M175.068,295.957l-25.632,15.189c-4.793-8.317-9.358-13.742-13.698-16.274
		c-4.522-2.893-10.354-4.34-17.495-4.34c-8.771,0-16.05,2.488-21.835,7.459c-5.787,4.883-8.68,11.032-8.68,18.444
		c0,10.219,7.595,18.444,22.784,24.684l20.886,8.544c16.997,6.872,29.43,15.257,37.295,25.157
		c7.866,9.9,11.799,22.038,11.799,36.414c0,19.258-6.42,35.172-19.258,47.738c-12.931,12.659-28.978,18.986-48.145,18.986
		c-18.173,0-33.183-5.378-45.026-16.139c-11.664-10.758-18.942-25.903-21.835-45.433l32.006-7.052
		c1.445,12.297,3.978,20.796,7.595,25.496c6.51,9.042,16.003,13.562,28.48,13.562c9.854,0,18.038-3.3,24.547-9.9
		c6.51-6.599,9.765-14.963,9.765-25.09c0-4.068-0.566-7.798-1.695-11.188c-1.131-3.391-2.895-6.51-5.289-9.358
		c-2.396-2.848-5.493-5.514-9.29-8.001c-3.797-2.485-8.319-4.859-13.562-7.12l-20.208-8.408
		c-28.662-12.115-42.991-29.837-42.991-53.163c0-15.732,6.012-28.888,18.037-39.466c12.024-10.667,26.989-16.003,44.891-16.003
		C142.655,260.696,161.506,272.451,175.068,295.957z"/>
	<path fill="#FFFFFF" d="M373.344,276.021v37.431c-18.264-15.278-37.16-22.92-56.689-22.92c-21.519,0-39.648,7.73-54.384,23.191
		c-14.829,15.372-22.242,34.176-22.242,56.418c0,21.971,7.413,40.506,22.242,55.604c14.827,15.1,33,22.648,54.52,22.648
		c11.121,0,20.567-1.808,28.344-5.425c4.34-1.808,8.837-4.249,13.494-7.323c4.656-3.073,9.562-6.781,14.715-11.121v38.109
		c-18.084,10.218-37.071,15.324-56.96,15.324c-29.927,0-55.468-10.442-76.625-31.328c-21.068-21.065-31.6-46.471-31.6-76.218
		c0-26.671,8.815-50.451,26.446-71.337c21.699-25.585,49.772-38.38,84.22-38.38C337.63,260.696,355.803,265.805,373.344,276.021z"/>
	<path fill="#FFFFFF" d="M484.146,384.924l64.826,89.238h-38.651l-59.809-85.712h-5.696v85.712h-31.599V264.765h37.024
		c27.667,0,47.647,5.2,59.944,15.596c13.562,11.575,20.343,26.853,20.343,45.839c0,14.83-4.25,27.578-12.748,38.245
		C509.28,375.115,498.068,381.94,484.146,384.924z M444.816,360.919h10.036c29.925,0,44.89-11.437,44.89-34.312
		c0-21.428-14.558-32.142-43.669-32.142h-11.257V360.919z"/>
	<path fill="#FFFFFF" d="M612.036,264.765v209.397h-31.599V264.765H612.036z"/>
	<path fill="#FFFFFF" d="M693.95,389.128v85.034h-31.599V264.765h35.804c17.54,0,30.786,1.221,39.736,3.662
		c9.04,2.441,16.997,7.052,23.869,13.833c12.024,11.754,18.038,26.581,18.038,44.483c0,19.169-6.421,34.358-19.258,45.568
		c-12.839,11.212-30.154,16.816-51.943,16.816H693.95z M693.95,359.834h11.799c29.022,0,43.534-11.165,43.534-33.498
		c0-21.607-14.965-32.413-44.89-32.413H693.95V359.834z"/>
	<path fill="#FFFFFF" d="M870.121,294.466v179.696h-31.6V294.466h-48.145v-29.701H918.13v29.701H870.121z"/>
	<path fill="#FFFFFF" d="M1064.465,295.957l-25.633,15.189c-4.793-8.317-9.357-13.742-13.697-16.274
		c-4.522-2.893-10.354-4.34-17.495-4.34c-8.771,0-16.05,2.488-21.835,7.459c-5.787,4.883-8.68,11.032-8.68,18.444
		c0,10.219,7.595,18.444,22.784,24.684l20.886,8.544c16.997,6.872,29.43,15.257,37.296,25.157
		c7.865,9.9,11.799,22.038,11.799,36.414c0,19.258-6.421,35.172-19.259,47.738c-12.93,12.659-28.978,18.986-48.145,18.986
		c-18.173,0-33.183-5.378-45.026-16.139c-11.664-10.758-18.942-25.903-21.835-45.433l32.006-7.052
		c1.445,12.297,3.978,20.796,7.595,25.496c6.51,9.042,16.003,13.562,28.48,13.562c9.854,0,18.038-3.3,24.547-9.9
		c6.51-6.599,9.765-14.963,9.765-25.09c0-4.068-0.565-7.798-1.695-11.188c-1.132-3.391-2.895-6.51-5.289-9.358
		c-2.396-2.848-5.493-5.514-9.29-8.001c-3.797-2.485-8.319-4.859-13.562-7.12l-20.208-8.408
		c-28.662-12.115-42.991-29.837-42.991-53.163c0-15.732,6.012-28.888,18.037-39.466c12.024-10.667,26.989-16.003,44.891-16.003
		C1032.052,260.696,1050.902,272.451,1064.465,295.957z"/>
	<path fill="#FFFFFF" d="M1139.599,264.765v126.127c0,17.993,2.937,31.147,8.815,39.465c8.769,12.026,21.109,18.038,37.023,18.038
		c16.004,0,28.39-6.012,37.16-18.038c5.876-8.046,8.815-21.201,8.815-39.465V264.765h31.6v134.807
		c0,22.062-6.872,40.234-20.614,54.52c-15.461,15.914-34.447,23.868-56.961,23.868c-22.513,0-41.455-7.954-56.824-23.868
		c-13.744-14.285-20.614-32.458-20.614-54.52V264.765H1139.599z"/>
	<path fill="#FFFFFF" d="M1384.12,384.924l64.827,89.238h-38.652l-59.809-85.712h-5.695v85.712h-31.6V264.765h37.024
		c27.666,0,47.646,5.2,59.943,15.596c13.562,11.575,20.344,26.853,20.344,45.839c0,14.83-4.251,27.578-12.749,38.245
		C1409.255,375.115,1398.043,381.94,1384.12,384.924z M1344.791,360.919h10.035c29.926,0,44.891-11.437,44.891-34.312
		c0-21.428-14.558-32.142-43.67-32.142h-11.256V360.919z"/>
	<path fill="#FFFFFF" d="M1595.959,294.466h-83.948v50.314h81.508v29.701h-81.508v69.979h83.948v29.701h-115.548V264.765h115.548
		V294.466z"/>
</g>
</svg>
