<?xml version="1.0" encoding="utf-8"?>
<!-- Generator: Adobe Illustrator 16.0.0, SVG Export Plug-In . SVG Version: 6.00 Build 0)  -->
<!DOCTYPE svg PUBLIC "-//W3C//DTD SVG 1.1//EN" "http://www.w3.org/Graphics/SVG/1.1/DTD/svg11.dtd">
<svg version="1.1" id="Layer_1" xmlns="http://www.w3.org/2000/svg" xmlns:xlink="http://www.w3.org/1999/xlink" x="0px" y="0px"
	 width="439.311px" height="432.839px" viewBox="260.351 7.545 439.311 432.839"
	 enable-background="new 260.351 7.545 439.311 432.839" xml:space="preserve">
<title>Artboard 18</title>
<path d="M350.976,245.594c1.027-6.186,6.874-10.368,13.059-9.341s10.368,6.874,9.341,13.059c-1.026,6.099,3.085,11.875,9.184,12.902
	c0.626,0.052,1.255,0.052,1.881,0c5.452-0.01,10.105-3.944,11.021-9.318c3.031-18.383-9.415-35.744-27.798-38.774
	s-35.744,9.415-38.774,27.798c-1.123,6.083,2.898,11.924,8.981,13.047c6.083,1.123,11.924-2.898,13.047-8.98
	c0.021-0.116,0.041-0.232,0.059-0.348V245.594z"/>
<path d="M457.824,229.466c-18.315-3.052-35.646,9.291-38.752,27.597c-1.123,6.083,2.897,11.924,8.98,13.047
	s11.924-2.898,13.047-8.981c0.021-0.116,0.041-0.231,0.059-0.348c1.027-6.186,6.874-10.368,13.06-9.341s10.367,6.874,9.341,13.059
	c-1.026,6.099,3.085,11.875,9.184,12.903c0.626,0.052,1.256,0.052,1.882,0c5.452-0.01,10.104-3.944,11.021-9.319
	C488.606,249.742,476.159,232.465,457.824,229.466z"/>
<path d="M456.569,308.807c-5.072-3.537-12.052-2.294-15.59,2.777c-14.886,21.413-44.312,26.705-65.724,11.819
	c-8.993-6.251-15.532-15.434-18.5-25.976c-1.695-5.951-7.893-9.4-13.843-7.706c-5.951,1.694-9.4,7.893-7.706,13.843
	c7.415,25.845,28.965,45.167,55.462,49.729c3.76,0.628,7.566,0.942,11.379,0.94c22.813-0.044,44.183-11.172,57.3-29.837
	C462.884,319.324,461.641,312.346,456.569,308.807z"/>
<path d="M614.714,94.931c-15.687-9.961-36.478-5.319-46.438,10.367c-4.804,7.565-6.391,16.734-4.41,25.473
	c1.349,6.038,7.336,9.838,13.373,8.49s9.838-7.335,8.49-13.373c-1.363-6.059,2.444-12.076,8.503-13.438
	c0.003,0,0.006-0.001,0.009-0.001c6.059-1.363,12.075,2.444,13.438,8.503c0.001,0.002,0.002,0.005,0.002,0.008
	c1.349,6.037,7.336,9.838,13.373,8.49c6.037-1.349,9.838-7.336,8.489-13.373C627.633,107.326,622.29,99.708,614.714,94.931z"/>
<path d="M678.15,22.4c-1.037-4.244-4.448-7.497-8.736-8.333C573.308-4.763,473.71,17.601,394.88,75.712
	c-3.564,2.549-5.315,6.943-4.48,11.245l2.643,11.603c2.24,11.334,4.48,22.938,7.303,34.854c-39.158-3.63-78.647-0.6-116.794,8.96
	c-4.272,1.102-7.5,4.61-8.243,8.96l-2.195,11.29c-12.41,64.422-27.821,144.614,18.726,219.341
	c18.74,30.136,49.505,50.787,84.493,56.717c6.676,1.127,13.434,1.696,20.204,1.702c28.414-0.039,55.956-9.811,78.042-27.687
	c31.085-25.396,54.377-59.044,67.2-97.081c52.867,10.686,106.518-14.377,132.25-61.779c42.56-77.101,22.803-156.307,6.943-219.968
	L678.15,22.4z M460.512,395.226c-43.094,35.205-106.566,28.81-141.771-14.284c-2.812-3.441-5.393-7.066-7.726-10.849
	c-42.022-67.2-27.552-142.643-15.859-203.213l0.851-4.48c84.381-19.343,172.989-4.44,246.4,41.44l-0.672,4.48
	C533.088,269.472,522.157,345.408,460.512,395.226z M654.406,242.906c-20.689,38.059-63.375,58.654-106.041,51.162
	c7.024-27.107,12.277-54.643,15.725-82.432l0.269-1.882l2.24-0.582c17.836-3.943,36.352,2.693,47.622,17.069
	c3.811,4.874,10.851,5.736,15.725,1.926c4.875-3.811,5.737-10.851,1.927-15.725l0,0c-16.615-21.159-43.885-30.928-70.157-25.133
	l-2.509,0.672c-20.284-13.177-41.891-24.198-64.467-32.883c1.059-2.233,1.343-4.755,0.807-7.168
	c-1.363-6.059,2.444-12.076,8.503-13.438c0.003-0.001,0.006-0.001,0.009-0.002c2.906-0.668,5.959-0.135,8.467,1.478
	c2.529,1.588,4.319,4.12,4.974,7.034c1.36,6.037,7.357,9.828,13.395,8.467s9.828-7.358,8.468-13.395l0,0
	c-3.87-18.174-21.74-29.77-39.915-25.9c-16.554,3.525-27.912,18.798-26.523,35.666c-15.997-4.987-32.331-8.82-48.877-11.469
	c-3.494-14.425-6.317-28.493-8.96-42.157l-0.896-4.48c70.834-49.881,158.565-69.619,243.937-54.88l1.12,4.48
	c14.873,59.808,33.466,134.266-4.839,203.706V242.906z"/>
</svg>
